<svg version="1.1" id="Layer_1" xmlns="http://www.w3.org/2000/svg" xmlns:xlink="http://www.w3.org/1999/xlink" x="0px" y="0px"
	 width="100%" viewBox="0 0 1028 260" enable-background="new 0 0 1028 260" xml:space="preserve">
<path fill="#FEFFFE" opacity="1.000000" stroke="none" 
	d="
M686.000000,261.000000 
	C457.333344,261.000000 229.166672,261.000000 1.000000,261.000000 
	C1.000000,174.333328 1.000000,87.666664 1.000000,1.000000 
	C343.666656,1.000000 686.333313,1.000000 1029.000000,1.000000 
	C1029.000000,87.666664 1029.000000,174.333328 1029.000000,261.000000 
	C914.833313,261.000000 800.666687,261.000000 686.000000,261.000000 
M242.384872,157.084656 
	C250.343430,158.384537 253.747208,161.944977 253.984848,170.072067 
	C254.242828,178.894455 254.074936,187.729385 254.087051,196.558838 
	C254.093582,201.316803 254.088211,206.074768 254.088211,210.780212 
	C262.682861,210.780212 270.619293,210.780212 278.674347,210.780212 
	C278.674347,193.778351 279.347870,176.964188 278.476227,160.230515 
	C277.677643,144.899109 263.146851,134.941986 247.529663,137.468552 
	C239.046143,138.841003 232.928833,143.937286 227.133484,150.250397 
	C222.198730,141.509247 214.329041,138.388138 205.394363,137.374466 
	C196.209122,136.332382 188.735001,140.389893 181.568268,146.715851 
	C181.360718,143.831238 181.211670,141.759888 181.048050,139.485718 
	C172.983139,139.485718 165.069916,139.485718 156.932205,139.485718 
	C156.932205,163.329636 156.932205,186.919830 156.932205,210.707581 
	C165.043381,210.707581 173.102310,210.707581 181.293076,210.707581 
	C181.293076,203.919250 181.231964,197.426178 181.308655,190.934723 
	C181.402985,182.951630 181.217987,174.936356 181.893356,166.997894 
	C182.460342,160.333267 186.554947,157.109589 192.792099,157.065842 
	C199.317947,157.020065 204.004684,160.860001 204.903214,167.239868 
	C205.272934,169.865036 205.294617,172.552887 205.303558,175.212814 
	C205.343201,186.999619 205.320709,198.786652 205.320709,210.692429 
	C213.828033,210.692429 221.874008,210.692429 230.077225,210.692429 
	C230.077225,197.066681 230.016617,183.751633 230.099030,170.437485 
	C230.151917,161.896698 233.584320,158.011444 242.384872,157.084656 
M914.634033,211.027847 
	C927.658630,215.182343 939.442566,213.115677 950.043152,203.157608 
	C950.199524,206.215668 950.313293,208.439606 950.431763,210.756180 
	C958.689087,210.756180 966.594971,210.756180 974.665161,210.756180 
	C974.665161,170.795807 974.665161,131.084061 974.665161,91.172615 
	C966.409729,91.172615 958.368408,91.172615 950.028259,91.172615 
	C950.028259,100.405823 950.028198,109.368103 950.028198,118.330376 
	C950.028198,127.340225 950.028259,136.350067 950.028259,145.839005 
	C937.131287,136.035400 923.898743,134.355927 910.476685,141.272446 
	C896.549133,148.449478 890.697144,161.089203 891.121033,176.369080 
	C891.564331,192.347290 898.866699,204.258575 914.634033,211.027847 
M617.213806,106.733162 
	C616.899414,105.526337 616.986511,103.730255 616.210266,103.201202 
	C604.873474,95.475319 579.348816,88.902115 562.563599,99.066795 
	C542.084106,111.468636 537.192200,139.559021 560.812866,154.812729 
	C565.122803,157.595978 569.903870,159.645950 574.448059,162.070953 
	C578.988037,164.493713 583.627014,166.763245 587.991455,169.472473 
	C591.614990,171.721848 593.661133,175.132584 592.758972,179.639908 
	C591.833801,184.262100 588.625061,186.676208 584.312073,187.848740 
	C577.962158,189.575012 571.700134,189.129532 565.824585,186.250626 
	C559.775391,183.286636 553.931763,179.902893 547.659790,176.520264 
	C543.593262,183.374268 539.387939,190.462250 535.256165,197.426392 
	C535.849304,198.234482 536.061890,198.738556 536.441040,199.009766 
	C556.678162,213.486450 578.498718,217.406189 602.008057,208.319412 
	C623.230652,200.116501 630.451355,167.531921 608.302734,152.611664 
	C602.958252,149.011337 597.112122,146.144562 591.438538,143.046982 
	C585.760986,139.947235 579.677490,137.464996 574.383728,133.822876 
	C568.835754,130.005890 569.816101,122.752167 575.820740,119.663666 
	C577.540833,118.778961 579.538269,118.219002 581.465759,117.988129 
	C591.028381,116.842751 599.317078,120.704834 607.849976,125.230400 
	C610.916260,119.207352 613.919983,113.307297 617.213806,106.733162 
M96.065369,126.700012 
	C96.821602,121.447517 100.375641,118.749954 105.137764,118.178261 
	C109.021149,117.712067 113.208694,117.793373 116.969696,118.763123 
	C122.496529,120.188171 127.763512,122.621017 133.420105,124.728432 
	C136.714142,118.206963 140.068665,111.565758 143.368088,105.033600 
	C128.371292,91.118790 97.616257,90.254196 82.390488,103.032745 
	C67.718285,115.346703 65.924011,135.817001 79.041595,148.814758 
	C83.659164,153.390152 89.741447,156.586197 95.422562,159.961624 
	C101.123878,163.349091 107.233940,166.041336 113.021706,169.293076 
	C117.039619,171.550461 118.812035,175.214371 117.905602,179.847031 
	C116.993210,184.510117 113.669388,186.767349 109.361870,187.919785 
	C102.429459,189.774490 95.763733,188.758850 89.491493,185.593994 
	C83.939583,182.792618 78.602341,179.565765 72.962891,176.410690 
	C68.776970,183.491623 64.581650,190.588470 60.402767,197.657501 
	C61.256763,198.550644 61.642647,199.115295 62.167503,199.479889 
	C81.900688,213.187469 103.119141,217.074524 126.045929,208.879486 
	C148.264633,200.937561 155.026077,168.916443 135.736938,154.402603 
	C130.467438,150.437653 124.586647,147.235519 118.796043,144.026810 
	C113.136925,140.890961 106.985344,138.585602 101.551605,135.127426 
	C99.084747,133.557465 97.828964,130.084564 96.065369,126.700012 
M388.695557,139.231110 
	C385.189423,138.578079 384.628815,140.359344 384.647156,143.448441 
	C384.764740,163.274765 384.707123,183.102127 384.707092,202.929138 
	C384.707092,205.528519 384.707092,208.127899 384.707092,210.756622 
	C393.175934,210.756622 401.099396,210.756622 409.293732,210.756622 
	C409.293732,198.877090 409.219757,187.242294 409.313812,175.608841 
	C409.414978,163.097992 417.777100,156.466156 429.773956,159.379349 
	C432.253143,159.981369 434.589142,161.172958 437.082275,162.127686 
	C439.771362,156.792770 442.343445,151.689972 444.915527,146.587173 
	C445.231781,146.656876 445.548065,146.726578 445.864319,146.796280 
	C445.864319,150.485077 445.864319,154.173874 445.864319,158.195221 
	C449.442566,158.195221 452.534210,158.195221 456.140717,158.195221 
	C456.140717,168.515182 455.782288,178.486649 456.244781,188.419891 
	C456.679016,197.745956 459.450500,206.542023 468.831818,210.618179 
	C478.838379,214.966034 488.866394,213.673141 498.632050,208.509232 
	C496.572266,201.799881 494.628906,195.469666 492.684418,189.135880 
	C484.464111,191.807373 481.407257,190.578735 481.116913,183.944107 
	C480.747620,175.504593 481.027435,167.036697 481.027435,158.143982 
	C486.030914,158.143982 490.780762,158.143982 495.630585,158.143982 
	C495.630585,151.653778 495.630585,145.608749 495.630585,139.093842 
	C490.590210,139.093842 485.852966,139.093842 480.672638,139.093842 
	C480.672638,130.056290 480.672638,121.484436 480.672638,112.954926 
	C472.268097,112.954926 464.338531,112.954926 455.984192,112.954926 
	C455.984192,121.784218 455.984192,130.375244 455.984192,139.976364 
	C449.763367,139.297729 443.989319,139.058929 438.381500,137.966782 
	C429.397522,136.217087 421.559235,137.975098 414.727264,144.079895 
	C413.079926,145.551926 411.461823,147.056686 409.057556,149.251968 
	C409.057556,145.286331 409.057556,142.399780 409.057556,139.231064 
	C402.277222,139.231064 395.967926,139.231064 388.695557,139.231110 
M631.301270,142.860718 
	C631.301270,177.472366 631.301270,212.084030 631.301270,246.948608 
	C639.759583,246.948608 647.783875,246.948608 656.288513,246.948608 
	C656.288513,232.804932 656.288513,218.957336 656.288513,204.758728 
	C674.721008,218.814758 695.887024,213.116302 705.780762,201.278259 
	C718.480957,186.082474 718.298523,162.932648 705.361572,148.580627 
	C692.740417,134.579056 674.662720,133.839462 656.116760,146.718796 
	C655.950989,144.236008 655.793457,141.875870 655.616760,139.228287 
	C648.276306,139.228287 641.298218,139.116928 634.331604,139.349075 
	C633.294434,139.383621 632.311096,141.034775 631.301270,142.860718 
M325.155670,137.411942 
	C309.192047,136.335510 296.187164,144.474228 289.723938,159.585846 
	C283.450165,174.254486 287.360565,193.520630 298.529022,203.830917 
	C305.223663,210.011139 313.092804,212.884903 322.092804,213.028137 
	C331.280090,213.174347 339.046875,209.681030 346.159851,202.702454 
	C346.159851,206.082169 346.159851,208.358856 346.159851,210.783112 
	C354.337250,210.783112 362.249420,210.783112 370.225555,210.783112 
	C370.225555,186.857086 370.225555,163.156433 370.225555,139.539139 
	C361.946686,139.539139 354.042145,139.539139 345.854614,139.539139 
	C345.854614,141.615463 345.854614,143.383621 345.854614,144.045212 
	C339.268768,141.884521 332.645020,139.711395 325.155670,137.411942 
M466.663605,41.297741 
	C455.420471,61.110291 458.668915,81.093765 465.766724,101.152962 
	C464.145264,84.144974 464.601929,67.419174 473.769226,52.315533 
	C482.898834,37.274006 496.880310,28.733824 513.776672,24.330511 
	C488.038361,37.189949 475.668701,58.607922 472.545898,87.938583 
	C481.176239,87.938583 489.137512,88.452217 497.007416,87.822990 
	C510.115265,86.774971 520.512085,80.783897 526.361267,68.569649 
	C529.283203,62.468113 531.779236,56.115536 533.905029,49.690277 
	C537.656860,38.350300 540.287781,26.593645 547.379272,16.617687 
	C550.008423,12.919222 549.395203,11.237721 544.803467,11.073961 
	C536.529419,10.778874 528.145569,10.206330 519.970215,11.153346 
	C498.386627,13.653532 479.545990,21.654419 466.663605,41.297741 
M832.612793,164.481323 
	C837.508118,157.676941 843.346069,155.161926 849.618347,157.155273 
	C855.061096,158.884979 858.243958,164.464844 858.297607,172.499527 
	C858.337646,178.495178 858.306702,184.491318 858.306885,190.487228 
	C858.307129,197.258423 858.306946,204.029602 858.306946,210.777039 
	C866.868103,210.777039 874.801697,210.777039 882.674744,210.777039 
	C882.847290,210.258469 883.031067,209.963272 883.031555,209.667786 
	C883.055420,195.177963 883.101990,180.688034 883.063721,166.198334 
	C883.014343,147.504562 868.468811,134.571487 849.837341,137.615570 
	C843.308228,138.682312 837.211487,142.395798 831.041687,144.851151 
	C830.977295,143.805740 830.849060,141.724762 830.716919,139.580887 
	C822.388855,139.580887 814.337402,139.580887 806.325806,139.580887 
	C806.325806,163.515076 806.325806,187.095383 806.325806,210.677567 
	C814.636841,210.677567 822.687927,210.677567 830.930847,210.677567 
	C830.930847,197.876572 830.861938,185.402451 830.986938,172.930267 
	C831.013000,170.327972 831.755615,167.732864 832.612793,164.481323 
M725.337280,154.913147 
	C712.626343,175.039673 720.900818,198.962418 740.963135,209.018219 
	C759.830627,218.475174 787.231812,211.160767 795.276367,194.157059 
	C790.839722,191.915009 786.299866,189.840210 781.989502,187.365677 
	C779.108154,185.711472 777.231262,185.887207 774.668823,188.282639 
	C768.347717,194.191864 757.836304,194.993210 751.082947,190.573792 
	C746.900818,187.837006 744.859070,184.035233 745.182800,178.472427 
	C762.640991,178.472427 779.715759,178.472427 796.744385,178.472427 
	C798.214905,157.528305 788.390442,142.975677 769.426270,138.604187 
	C751.703613,134.518936 736.936096,139.688187 725.337280,154.913147 
M441.097504,77.412361 
	C434.501923,70.012650 426.290070,65.424599 416.713531,63.287685 
	C438.761047,62.893661 450.777008,75.253448 456.683044,96.779091 
	C458.000916,85.225616 455.623993,76.123093 449.554749,68.400352 
	C439.339447,55.402016 425.029388,53.372150 409.904846,55.518894 
	C403.247986,56.463757 396.839844,59.160782 390.431671,61.029358 
	C397.518402,70.383293 403.779510,78.666649 410.061157,86.934402 
	C419.916626,99.905930 431.602844,102.765953 450.791656,92.001404 
	C447.701813,87.281906 444.640961,82.606674 441.097504,77.412361 
z"/>
<path fill="#030303" opacity="1.000000" stroke="none" 
	d="
M241.977142,157.071732 
	C233.584320,158.011444 230.151917,161.896698 230.099030,170.437485 
	C230.016617,183.751633 230.077225,197.066681 230.077225,210.692429 
	C221.874008,210.692429 213.828033,210.692429 205.320709,210.692429 
	C205.320709,198.786652 205.343201,186.999619 205.303558,175.212814 
	C205.294617,172.552887 205.272934,169.865036 204.903214,167.239868 
	C204.004684,160.860001 199.317947,157.020065 192.792099,157.065842 
	C186.554947,157.109589 182.460342,160.333267 181.893356,166.997894 
	C181.217987,174.936356 181.402985,182.951630 181.308655,190.934723 
	C181.231964,197.426178 181.293076,203.919250 181.293076,210.707581 
	C173.102310,210.707581 165.043381,210.707581 156.932205,210.707581 
	C156.932205,186.919830 156.932205,163.329636 156.932205,139.485718 
	C165.069916,139.485718 172.983139,139.485718 181.048050,139.485718 
	C181.211670,141.759888 181.360718,143.831238 181.568268,146.715851 
	C188.735001,140.389893 196.209122,136.332382 205.394363,137.374466 
	C214.329041,138.388138 222.198730,141.509247 227.133484,150.250397 
	C232.928833,143.937286 239.046143,138.841003 247.529663,137.468552 
	C263.146851,134.941986 277.677643,144.899109 278.476227,160.230515 
	C279.347870,176.964188 278.674347,193.778351 278.674347,210.780212 
	C270.619293,210.780212 262.682861,210.780212 254.088211,210.780212 
	C254.088211,206.074768 254.093582,201.316803 254.087051,196.558838 
	C254.074936,187.729385 254.242828,178.894455 253.984848,170.072067 
	C253.747208,161.944977 250.343430,158.384537 241.977142,157.071732 
z"/>
<path fill="#030303" opacity="1.000000" stroke="none" 
	d="
M914.249390,210.947891 
	C898.866699,204.258575 891.564331,192.347290 891.121033,176.369080 
	C890.697144,161.089203 896.549133,148.449478 910.476685,141.272446 
	C923.898743,134.355927 937.131287,136.035400 950.028259,145.839005 
	C950.028259,136.350067 950.028198,127.340225 950.028198,118.330376 
	C950.028198,109.368103 950.028259,100.405823 950.028259,91.172615 
	C958.368408,91.172615 966.409729,91.172615 974.665161,91.172615 
	C974.665161,131.084061 974.665161,170.795807 974.665161,210.756180 
	C966.594971,210.756180 958.689087,210.756180 950.431763,210.756180 
	C950.313293,208.439606 950.199524,206.215668 950.043152,203.157608 
	C939.442566,213.115677 927.658630,215.182343 914.249390,210.947891 
M950.645569,175.436447 
	C950.558167,174.609634 950.502502,173.778030 950.378540,172.956726 
	C948.942261,163.440567 941.333435,157.375458 932.211670,158.464722 
	C922.786377,159.590240 916.565125,167.029037 917.239685,176.366837 
	C917.946716,186.154770 925.059082,192.414810 934.947876,191.952988 
	C943.658325,191.546204 949.067871,186.103699 950.645569,175.436447 
z"/>
<path fill="#58BD6E" opacity="1.000000" stroke="none" 
	d="
M617.068726,107.070206 
	C613.919983,113.307297 610.916260,119.207352 607.849976,125.230400 
	C599.317078,120.704834 591.028381,116.842751 581.465759,117.988129 
	C579.538269,118.219002 577.540833,118.778961 575.820740,119.663666 
	C569.816101,122.752167 568.835754,130.005890 574.383728,133.822876 
	C579.677490,137.464996 585.760986,139.947235 591.438538,143.046982 
	C597.112122,146.144562 602.958252,149.011337 608.302734,152.611664 
	C630.451355,167.531921 623.230652,200.116501 602.008057,208.319412 
	C578.498718,217.406189 556.678162,213.486450 536.441040,199.009766 
	C536.061890,198.738556 535.849304,198.234482 535.256165,197.426392 
	C539.387939,190.462250 543.593262,183.374268 547.659790,176.520264 
	C553.931763,179.902893 559.775391,183.286636 565.824585,186.250626 
	C571.700134,189.129532 577.962158,189.575012 584.312073,187.848740 
	C588.625061,186.676208 591.833801,184.262100 592.758972,179.639908 
	C593.661133,175.132584 591.614990,171.721848 587.991455,169.472473 
	C583.627014,166.763245 578.988037,164.493713 574.448059,162.070953 
	C569.903870,159.645950 565.122803,157.595978 560.812866,154.812729 
	C537.192200,139.559021 542.084106,111.468636 562.563599,99.066795 
	C579.348816,88.902115 604.873474,95.475319 616.210266,103.201202 
	C616.986511,103.730255 616.899414,105.526337 617.068726,107.070206 
z"/>
<path fill="#58BD6E" opacity="1.000000" stroke="none" 
	d="
M96.044594,127.087448 
	C97.828964,130.084564 99.084747,133.557465 101.551605,135.127426 
	C106.985344,138.585602 113.136925,140.890961 118.796043,144.026810 
	C124.586647,147.235519 130.467438,150.437653 135.736938,154.402603 
	C155.026077,168.916443 148.264633,200.937561 126.045929,208.879486 
	C103.119141,217.074524 81.900688,213.187469 62.167503,199.479889 
	C61.642647,199.115295 61.256763,198.550644 60.402767,197.657501 
	C64.581650,190.588470 68.776970,183.491623 72.962891,176.410690 
	C78.602341,179.565765 83.939583,182.792618 89.491493,185.593994 
	C95.763733,188.758850 102.429459,189.774490 109.361870,187.919785 
	C113.669388,186.767349 116.993210,184.510117 117.905602,179.847031 
	C118.812035,175.214371 117.039619,171.550461 113.021706,169.293076 
	C107.233940,166.041336 101.123878,163.349091 95.422562,159.961624 
	C89.741447,156.586197 83.659164,153.390152 79.041595,148.814758 
	C65.924011,135.817001 67.718285,115.346703 82.390488,103.032745 
	C97.616257,90.254196 128.371292,91.118790 143.368088,105.033600 
	C140.068665,111.565758 136.714142,118.206963 133.420105,124.728432 
	C127.763512,122.621017 122.496529,120.188171 116.969696,118.763123 
	C113.208694,117.793373 109.021149,117.712067 105.137764,118.178261 
	C100.375641,118.749954 96.821602,121.447517 96.044594,127.087448 
z"/>
<path fill="#030303" opacity="1.000000" stroke="none" 
	d="
M389.177063,139.231079 
	C395.967926,139.231064 402.277222,139.231064 409.057556,139.231064 
	C409.057556,142.399780 409.057556,145.286331 409.057556,149.251968 
	C411.461823,147.056686 413.079926,145.551926 414.727264,144.079895 
	C421.559235,137.975098 429.397522,136.217087 438.381500,137.966782 
	C443.989319,139.058929 449.763367,139.297729 455.984192,139.976364 
	C455.984192,130.375244 455.984192,121.784218 455.984192,112.954926 
	C464.338531,112.954926 472.268097,112.954926 480.672638,112.954926 
	C480.672638,121.484436 480.672638,130.056290 480.672638,139.093842 
	C485.852966,139.093842 490.590210,139.093842 495.630585,139.093842 
	C495.630585,145.608749 495.630585,151.653778 495.630585,158.143982 
	C490.780762,158.143982 486.030914,158.143982 481.027435,158.143982 
	C481.027435,167.036697 480.747620,175.504593 481.116913,183.944107 
	C481.407257,190.578735 484.464111,191.807373 492.684418,189.135880 
	C494.628906,195.469666 496.572266,201.799881 498.632050,208.509232 
	C488.866394,213.673141 478.838379,214.966034 468.831818,210.618179 
	C459.450500,206.542023 456.679016,197.745956 456.244781,188.419891 
	C455.782288,178.486649 456.140717,168.515182 456.140717,158.195221 
	C452.534210,158.195221 449.442566,158.195221 445.864319,158.195221 
	C445.864319,154.173874 445.864319,150.485077 445.864319,146.796280 
	C445.548065,146.726578 445.231781,146.656876 444.915527,146.587173 
	C442.343445,151.689972 439.771362,156.792770 437.082275,162.127686 
	C434.589142,161.172958 432.253143,159.981369 429.773956,159.379349 
	C417.777100,156.466156 409.414978,163.097992 409.313812,175.608841 
	C409.219757,187.242294 409.293732,198.877090 409.293732,210.756622 
	C401.099396,210.756622 393.175934,210.756622 384.707092,210.756622 
	C384.707092,208.127899 384.707092,205.528519 384.707092,202.929138 
	C384.707123,183.102127 384.764740,163.274765 384.647156,143.448441 
	C384.628815,140.359344 385.189423,138.578079 389.177063,139.231079 
z"/>
<path fill="#040404" opacity="1.000000" stroke="none" 
	d="
M631.302063,142.399384 
	C632.311096,141.034775 633.294434,139.383621 634.331604,139.349075 
	C641.298218,139.116928 648.276306,139.228287 655.616760,139.228287 
	C655.793457,141.875870 655.950989,144.236008 656.116760,146.718796 
	C674.662720,133.839462 692.740417,134.579056 705.361572,148.580627 
	C718.298523,162.932648 718.480957,186.082474 705.780762,201.278259 
	C695.887024,213.116302 674.721008,218.814758 656.288513,204.758728 
	C656.288513,218.957336 656.288513,232.804932 656.288513,246.948608 
	C647.783875,246.948608 639.759583,246.948608 631.301270,246.948608 
	C631.301270,212.084030 631.301270,177.472366 631.302063,142.399384 
M655.674622,175.449783 
	C655.827820,182.871170 659.315979,188.190750 666.173157,190.882874 
	C675.545349,194.562393 685.589600,189.394058 688.233582,179.844971 
	C691.019043,169.785126 685.506714,160.492050 675.705933,158.725220 
	C664.763611,156.752594 656.783569,163.063019 655.674622,175.449783 
z"/>
<path fill="#040404" opacity="1.000000" stroke="none" 
	d="
M325.588470,137.475098 
	C332.645020,139.711395 339.268768,141.884521 345.854614,144.045212 
	C345.854614,143.383621 345.854614,141.615463 345.854614,139.539139 
	C354.042145,139.539139 361.946686,139.539139 370.225555,139.539139 
	C370.225555,163.156433 370.225555,186.857086 370.225555,210.783112 
	C362.249420,210.783112 354.337250,210.783112 346.159851,210.783112 
	C346.159851,208.358856 346.159851,206.082169 346.159851,202.702454 
	C339.046875,209.681030 331.280090,213.174347 322.092804,213.028137 
	C313.092804,212.884903 305.223663,210.011139 298.529022,203.830917 
	C287.360565,193.520630 283.450165,174.254486 289.723938,159.585846 
	C296.187164,144.474228 309.192047,136.335510 325.588470,137.475098 
M313.356781,171.281021 
	C312.361786,180.955078 315.396667,187.471802 322.308167,190.502014 
	C331.430176,194.501404 341.732880,190.535294 345.156952,181.706192 
	C348.644958,172.712082 344.347778,162.509720 335.748383,159.368393 
	C326.280914,155.909988 316.895905,160.647400 313.356781,171.281021 
z"/>
<path fill="#57BC6D" opacity="1.000000" stroke="none" 
	d="
M466.819458,40.963264 
	C479.545990,21.654419 498.386627,13.653532 519.970215,11.153346 
	C528.145569,10.206330 536.529419,10.778874 544.803467,11.073961 
	C549.395203,11.237721 550.008423,12.919222 547.379272,16.617687 
	C540.287781,26.593645 537.656860,38.350300 533.905029,49.690277 
	C531.779236,56.115536 529.283203,62.468113 526.361267,68.569649 
	C520.512085,80.783897 510.115265,86.774971 497.007416,87.822990 
	C489.137512,88.452217 481.176239,87.938583 472.545898,87.938583 
	C475.668701,58.607922 488.038361,37.189949 513.776672,24.330511 
	C496.880310,28.733824 482.898834,37.274006 473.769226,52.315533 
	C464.601929,67.419174 464.145264,84.144974 465.766724,101.152962 
	C458.668915,81.093765 455.420471,61.110291 466.819458,40.963264 
z"/>
<path fill="#040404" opacity="1.000000" stroke="none" 
	d="
M832.390381,164.807892 
	C831.755615,167.732864 831.013000,170.327972 830.986938,172.930267 
	C830.861938,185.402451 830.930847,197.876572 830.930847,210.677567 
	C822.687927,210.677567 814.636841,210.677567 806.325806,210.677567 
	C806.325806,187.095383 806.325806,163.515076 806.325806,139.580887 
	C814.337402,139.580887 822.388855,139.580887 830.716919,139.580887 
	C830.849060,141.724762 830.977295,143.805740 831.041687,144.851151 
	C837.211487,142.395798 843.308228,138.682312 849.837341,137.615570 
	C868.468811,134.571487 883.014343,147.504562 883.063721,166.198334 
	C883.101990,180.688034 883.055420,195.177963 883.031555,209.667786 
	C883.031067,209.963272 882.847290,210.258469 882.674744,210.777039 
	C874.801697,210.777039 866.868103,210.777039 858.306946,210.777039 
	C858.306946,204.029602 858.307129,197.258423 858.306885,190.487228 
	C858.306702,184.491318 858.337646,178.495178 858.297607,172.499527 
	C858.243958,164.464844 855.061096,158.884979 849.618347,157.155273 
	C843.346069,155.161926 837.508118,157.676941 832.390381,164.807892 
z"/>
<path fill="#040404" opacity="1.000000" stroke="none" 
	d="
M725.556641,154.625458 
	C736.936096,139.688187 751.703613,134.518936 769.426270,138.604187 
	C788.390442,142.975677 798.214905,157.528305 796.744385,178.472427 
	C779.715759,178.472427 762.640991,178.472427 745.182800,178.472427 
	C744.859070,184.035233 746.900818,187.837006 751.082947,190.573792 
	C757.836304,194.993210 768.347717,194.191864 774.668823,188.282639 
	C777.231262,185.887207 779.108154,185.711472 781.989502,187.365677 
	C786.299866,189.840210 790.839722,191.915009 795.276367,194.157059 
	C787.231812,211.160767 759.830627,218.475174 740.963135,209.018219 
	C720.900818,198.962418 712.626343,175.039673 725.556641,154.625458 
M759.353577,153.261673 
	C749.982788,154.258209 746.102112,157.658539 746.284973,164.801910 
	C754.904114,164.801910 763.524963,164.801910 772.159119,164.801910 
	C771.481140,157.621933 768.604431,154.914948 759.353577,153.261673 
z"/>
<path fill="#57BD6D" opacity="1.000000" stroke="none" 
	d="
M441.338806,77.671898 
	C444.640961,82.606674 447.701813,87.281906 450.791656,92.001404 
	C431.602844,102.765953 419.916626,99.905930 410.061157,86.934402 
	C403.779510,78.666649 397.518402,70.383293 390.431671,61.029358 
	C396.839844,59.160782 403.247986,56.463757 409.904846,55.518894 
	C425.029388,53.372150 439.339447,55.402016 449.554749,68.400352 
	C455.623993,76.123093 458.000916,85.225616 456.683044,96.779091 
	C450.777008,75.253448 438.761047,62.893661 416.713531,63.287685 
	C426.290070,65.424599 434.501923,70.012650 441.338806,77.671898 
z"/>
<path fill="#FBFBFB" opacity="1.000000" stroke="none" 
	d="
M950.607361,175.836456 
	C949.067871,186.103699 943.658325,191.546204 934.947876,191.952988 
	C925.059082,192.414810 917.946716,186.154770 917.239685,176.366837 
	C916.565125,167.029037 922.786377,159.590240 932.211670,158.464722 
	C941.333435,157.375458 948.942261,163.440567 950.378540,172.956726 
	C950.502502,173.778030 950.558167,174.609634 950.607361,175.836456 
z"/>
<path fill="#FBFBFB" opacity="1.000000" stroke="none" 
	d="
M655.675171,175.007233 
	C656.783569,163.063019 664.763611,156.752594 675.705933,158.725220 
	C685.506714,160.492050 691.019043,169.785126 688.233582,179.844971 
	C685.589600,189.394058 675.545349,194.562393 666.173157,190.882874 
	C659.315979,188.190750 655.827820,182.871170 655.675171,175.007233 
z"/>
<path fill="#FBFBFB" opacity="1.000000" stroke="none" 
	d="
M313.510620,170.898529 
	C316.895905,160.647400 326.280914,155.909988 335.748383,159.368393 
	C344.347778,162.509720 348.644958,172.712082 345.156952,181.706192 
	C341.732880,190.535294 331.430176,194.501404 322.308167,190.502014 
	C315.396667,187.471802 312.361786,180.955078 313.510620,170.898529 
z"/>
<path fill="#F7F7F7" opacity="1.000000" stroke="none" 
	d="
M759.752563,153.315338 
	C768.604431,154.914948 771.481140,157.621933 772.159119,164.801910 
	C763.524963,164.801910 754.904114,164.801910 746.284973,164.801910 
	C746.102112,157.658539 749.982788,154.258209 759.752563,153.315338 
z"/>
</svg>